<?xml version="1.0" encoding="UTF-8" standalone="no"?>
<!DOCTYPE svg PUBLIC "-//W3C//DTD SVG 1.1//EN"
 "http://www.w3.org/Graphics/SVG/1.1/DTD/svg11.dtd">
<!-- Generated by graphviz version 2.38.0 (20140413.2041)
 -->
<!-- Title: Perl Pages: 1 -->
<svg width="470pt" height="848pt"
 viewBox="0.00 0.00 470.14 847.76" xmlns="http://www.w3.org/2000/svg" xmlns:xlink="http://www.w3.org/1999/xlink">
<g id="graph0" class="graph" transform="scale(1 1) rotate(0) translate(4 843.765)">
<title>Perl</title>
<polygon fill="white" stroke="none" points="-4,4 -4,-843.765 466.142,-843.765 466.142,4 -4,4"/>
<!-- GPGEO_EXPL -->
<g id="node1" class="node"><title>GPGEO_EXPL</title>
<polygon fill="none" stroke="black" points="456.914,-432.402 352.614,-432.402 352.614,-391.198 456.914,-391.198 456.914,-432.402"/>
<text text-anchor="middle" x="404.764" y="-416" font-family="Times,serif" font-size="14.00">GPGEO_EXPL</text>
<text text-anchor="middle" x="404.764" y="-399.2" font-family="Times,serif" font-size="14.00">154</text>
</g>
<!-- GPHLWI -->
<g id="node2" class="node"><title>GPHLWI</title>
<polygon fill="none" stroke="black" points="261.835,-373.402 190.985,-373.402 190.985,-332.198 261.835,-332.198 261.835,-373.402"/>
<text text-anchor="middle" x="226.41" y="-357" font-family="Times,serif" font-size="14.00">GPHLWI</text>
<text text-anchor="middle" x="226.41" y="-340.2" font-family="Times,serif" font-size="14.00">116</text>
</g>
<!-- GPXX -->
<g id="node3" class="node"><title>GPXX</title>
<polygon fill="none" stroke="black" points="431.866,-151.402 377.661,-151.402 377.661,-110.198 431.866,-110.198 431.866,-151.402"/>
<text text-anchor="middle" x="404.764" y="-135" font-family="Times,serif" font-size="14.00">GPXX</text>
<text text-anchor="middle" x="404.764" y="-118.2" font-family="Times,serif" font-size="14.00">197</text>
</g>
<!-- GPGRP_EXPL -->
<g id="node4" class="node"><title>GPGRP_EXPL</title>
<polygon fill="none" stroke="black" points="278.02,-237.402 174.801,-237.402 174.801,-196.198 278.02,-196.198 278.02,-237.402"/>
<text text-anchor="middle" x="226.41" y="-221" font-family="Times,serif" font-size="14.00">GPGRP_EXPL</text>
<text text-anchor="middle" x="226.41" y="-204.2" font-family="Times,serif" font-size="14.00">174</text>
</g>
<!-- GPGRXYB_EXPL -->
<g id="node5" class="node"><title>GPGRXYB_EXPL</title>
<polygon fill="none" stroke="black" points="288.787,-803.402 164.034,-803.402 164.034,-762.198 288.787,-762.198 288.787,-803.402"/>
<text text-anchor="middle" x="226.41" y="-787" font-family="Times,serif" font-size="14.00">GPGRXYB_EXPL</text>
<text text-anchor="middle" x="226.41" y="-770.2" font-family="Times,serif" font-size="14.00">240</text>
</g>
<!-- GPHLUV_EXPL -->
<g id="node6" class="node"><title>GPHLUV_EXPL</title>
<polygon fill="none" stroke="black" points="462.02,-316.402 347.508,-316.402 347.508,-275.198 462.02,-275.198 462.02,-316.402"/>
<text text-anchor="middle" x="404.764" y="-300" font-family="Times,serif" font-size="14.00">GPHLUV_EXPL</text>
<text text-anchor="middle" x="404.764" y="-283.2" font-family="Times,serif" font-size="14.00">127</text>
</g>
<!-- GPGRGEO_EXPL -->
<g id="node7" class="node"><title>GPGRGEO_EXPL</title>
<polygon fill="none" stroke="black" points="288.503,-433.402 164.318,-433.402 164.318,-392.198 288.503,-392.198 288.503,-433.402"/>
<text text-anchor="middle" x="226.41" y="-417" font-family="Times,serif" font-size="14.00">GPGRGEO_EXPL</text>
<text text-anchor="middle" x="226.41" y="-400.2" font-family="Times,serif" font-size="14.00">303</text>
</g>
<!-- GPHPRE_EXPL -->
<g id="node8" class="node"><title>GPHPRE_EXPL</title>
<polygon fill="none" stroke="black" points="460.426,-772.402 349.101,-772.402 349.101,-731.198 460.426,-731.198 460.426,-772.402"/>
<text text-anchor="middle" x="404.764" y="-756" font-family="Times,serif" font-size="14.00">GPHPRE_EXPL</text>
<text text-anchor="middle" x="404.764" y="-739.2" font-family="Times,serif" font-size="14.00">420</text>
</g>
<!-- CPG_GP_HYD_T9 -->
<g id="node9" class="node"><title>CPG_GP_HYD_T9</title>
<polygon fill="none" stroke="black" points="290.398,-41.4019 162.423,-41.4019 162.423,-0.198095 290.398,-0.198095 290.398,-41.4019"/>
<text text-anchor="middle" x="226.41" y="-25" font-family="Times,serif" font-size="14.00">CPG_GP_HYD_T9</text>
<text text-anchor="middle" x="226.41" y="-8.2" font-family="Times,serif" font-size="14.00">156</text>
</g>
<!-- CPG_GP_HYD_T9&#45;&#45;GPGEO_EXPL -->
<g id="edge3" class="edge"><title>CPG_GP_HYD_T9&#45;&#45;GPGEO_EXPL</title>
<path fill="none" stroke="black" d="M290.705,-34.5509C298.608,-38.6357 305.844,-43.9324 311.386,-50.8 388.791,-146.731 304.515,-210.23 347.386,-325.8 356.389,-350.07 373.28,-374.437 386.236,-391.005"/>
</g>
<!-- CPG_GP_HYD_T9&#45;&#45;GPXX -->
<g id="edge6" class="edge"><title>CPG_GP_HYD_T9&#45;&#45;GPXX</title>
<path fill="none" stroke="black" d="M290.484,-40.4217C297.715,-43.5159 304.835,-46.9754 311.386,-50.8 339.236,-67.0584 366.581,-92.2131 384.202,-109.968"/>
</g>
<!-- CPG_GP_HYD_T9&#45;&#45;GPHLUV_EXPL -->
<g id="edge4" class="edge"><title>CPG_GP_HYD_T9&#45;&#45;GPHLUV_EXPL</title>
<path fill="none" stroke="black" d="M290.41,-34.7952C298.354,-38.8452 305.681,-44.0671 311.386,-50.8 369.769,-119.71 301.134,-173.224 347.386,-250.8 352.965,-260.158 361.264,-268.353 369.789,-275.094"/>
</g>
<!-- CPG_GP_HYD_T9&#45;&#45;GPHPRE_EXPL -->
<g id="edge1" class="edge"><title>CPG_GP_HYD_T9&#45;&#45;GPHPRE_EXPL</title>
<path fill="none" stroke="black" d="M290.725,-33.9969C298.73,-38.1572 305.991,-43.6224 311.386,-50.8 350.515,-102.857 330.837,-572.815 347.386,-635.8 356.66,-671.1 376.981,-708.475 390.521,-730.972"/>
</g>
<!-- GPRCP_EXPL -->
<g id="node10" class="node"><title>GPRCP_EXPL</title>
<polygon fill="none" stroke="black" points="456.104,-626.402 353.424,-626.402 353.424,-585.198 456.104,-585.198 456.104,-626.402"/>
<text text-anchor="middle" x="404.764" y="-610" font-family="Times,serif" font-size="14.00">GPRCP_EXPL</text>
<text text-anchor="middle" x="404.764" y="-593.2" font-family="Times,serif" font-size="14.00">213</text>
</g>
<!-- CPG_GP_HYD_T9&#45;&#45;GPRCP_EXPL -->
<g id="edge2" class="edge"><title>CPG_GP_HYD_T9&#45;&#45;GPRCP_EXPL</title>
<path fill="none" stroke="black" d="M290.531,-34.1453C298.562,-38.2851 305.882,-43.7051 311.386,-50.8 364.867,-119.745 329.072,-356.487 347.386,-441.8 358.761,-494.787 382.012,-554.34 394.815,-585.03"/>
</g>
<!-- GPUVS -->
<g id="node11" class="node"><title>GPUVS</title>
<polygon fill="none" stroke="black" points="435.649,-241.402 373.879,-241.402 373.879,-200.198 435.649,-200.198 435.649,-241.402"/>
<text text-anchor="middle" x="404.764" y="-225" font-family="Times,serif" font-size="14.00">GPUVS</text>
<text text-anchor="middle" x="404.764" y="-208.2" font-family="Times,serif" font-size="14.00">135</text>
</g>
<!-- CPG_GP_HYD_T9&#45;&#45;GPUVS -->
<g id="edge5" class="edge"><title>CPG_GP_HYD_T9&#45;&#45;GPUVS</title>
<path fill="none" stroke="black" d="M290.438,-35.9573C298.183,-39.8346 305.446,-44.6989 311.386,-50.8 347.268,-87.6586 321.147,-116.555 347.386,-160.8 355.989,-175.307 368.64,-189.188 379.778,-199.938"/>
</g>
<!-- GPGW -->
<g id="node12" class="node"><title>GPGW</title>
<polygon fill="none" stroke="black" points="433.475,-48.4019 376.053,-48.4019 376.053,-7.1981 433.475,-7.1981 433.475,-48.4019"/>
<text text-anchor="middle" x="404.764" y="-32" font-family="Times,serif" font-size="14.00">GPGW</text>
<text text-anchor="middle" x="404.764" y="-15.2" font-family="Times,serif" font-size="14.00">224</text>
</g>
<!-- CPG_GP_HYD_T9&#45;&#45;GPGW -->
<g id="edge7" class="edge"><title>CPG_GP_HYD_T9&#45;&#45;GPGW</title>
<path fill="none" stroke="black" d="M290.58,-23.3074C319.835,-24.4686 353.093,-25.7887 375.948,-26.6959"/>
</g>
<!-- GPCTY_FORC -->
<g id="node13" class="node"><title>GPCTY_FORC</title>
<polygon fill="none" stroke="black" points="279.359,-531.402 173.462,-531.402 173.462,-490.198 279.359,-490.198 279.359,-531.402"/>
<text text-anchor="middle" x="226.41" y="-515" font-family="Times,serif" font-size="14.00">GPCTY_FORC</text>
<text text-anchor="middle" x="226.41" y="-498.2" font-family="Times,serif" font-size="14.00">338</text>
</g>
<!-- CPG_GP_HYD -->
<g id="node14" class="node"><title>CPG_GP_HYD</title>
<polygon fill="none" stroke="black" points="105.653,-433.402 -0.2183,-433.402 -0.2183,-392.198 105.653,-392.198 105.653,-433.402"/>
<text text-anchor="middle" x="52.7174" y="-417" font-family="Times,serif" font-size="14.00">CPG_GP_HYD</text>
<text text-anchor="middle" x="52.7174" y="-400.2" font-family="Times,serif" font-size="14.00">428</text>
</g>
<!-- CPG_GP_HYD&#45;&#45;GPGEO_EXPL -->
<g id="edge15" class="edge"><title>CPG_GP_HYD&#45;&#45;GPGEO_EXPL</title>
<path fill="none" stroke="black" d="M104.936,-433.462C116.736,-437.335 129.368,-440.794 141.435,-442.8 215.946,-455.189 236.84,-454.974 311.386,-442.8 324.909,-440.591 339.123,-436.677 352.237,-432.357"/>
</g>
<!-- CPG_GP_HYD&#45;&#45;GPHLWI -->
<g id="edge17" class="edge"><title>CPG_GP_HYD&#45;&#45;GPHLWI</title>
<path fill="none" stroke="black" d="M105.697,-394.635C133.332,-384.978 166.545,-373.371 190.969,-364.836"/>
</g>
<!-- CPG_GP_HYD&#45;&#45;GPXX -->
<g id="edge21" class="edge"><title>CPG_GP_HYD&#45;&#45;GPXX</title>
<path fill="none" stroke="black" d="M55.3789,-391.915C60.1241,-347.011 77.8303,-240.968 141.435,-186.8 159.472,-171.439 314.599,-145.113 377.466,-134.961"/>
</g>
<!-- CPG_GP_HYD&#45;&#45;GPGRP_EXPL -->
<g id="edge20" class="edge"><title>CPG_GP_HYD&#45;&#45;GPGRP_EXPL</title>
<path fill="none" stroke="black" d="M59.9405,-392.16C71.0761,-358.465 97.4517,-291.432 141.435,-251.8 150.939,-243.236 162.836,-236.587 174.66,-231.499"/>
</g>
<!-- CPG_GP_HYD&#45;&#45;GPGRXYB_EXPL -->
<g id="edge9" class="edge"><title>CPG_GP_HYD&#45;&#45;GPGRXYB_EXPL</title>
<path fill="none" stroke="black" d="M53.1556,-433.765C52.7478,-491.269 59.3553,-653.457 141.435,-747.8 147.551,-754.831 155.309,-760.479 163.627,-765.01"/>
</g>
<!-- CPG_GP_HYD&#45;&#45;GPHLUV_EXPL -->
<g id="edge18" class="edge"><title>CPG_GP_HYD&#45;&#45;GPHLUV_EXPL</title>
<path fill="none" stroke="black" d="M67.3591,-391.927C82.6104,-370.536 109.417,-338.282 141.435,-322.8 206.868,-291.16 292.026,-288.378 347.284,-290.831"/>
</g>
<!-- CPG_GP_HYD&#45;&#45;GPGRGEO_EXPL -->
<g id="edge16" class="edge"><title>CPG_GP_HYD&#45;&#45;GPGRGEO_EXPL</title>
<path fill="none" stroke="black" d="M105.697,-412.8C124.153,-412.8 145.097,-412.8 164.25,-412.8"/>
</g>
<!-- CPG_GP_HYD&#45;&#45;GPHPRE_EXPL -->
<g id="edge8" class="edge"><title>CPG_GP_HYD&#45;&#45;GPHPRE_EXPL</title>
<path fill="none" stroke="black" d="M54.9506,-433.413C59.9004,-508.316 81.0547,-764.226 141.435,-812.8 200.288,-860.146 239.045,-834.529 311.386,-812.8 337.523,-804.949 363.087,-787.039 380.672,-772.645"/>
</g>
<!-- CPG_GP_HYD&#45;&#45;CPG_GP_HYD_T9 -->
<g id="edge24" class="edge"><title>CPG_GP_HYD&#45;&#45;CPG_GP_HYD_T9</title>
<path fill="none" stroke="black" d="M56.1685,-391.895C64.6705,-322.685 94.9368,-102.476 141.435,-50.8 147.234,-44.3553 154.514,-39.2946 162.35,-35.3208"/>
</g>
<!-- CPG_GP_HYD&#45;&#45;GPRCP_EXPL -->
<g id="edge10" class="edge"><title>CPG_GP_HYD&#45;&#45;GPRCP_EXPL</title>
<path fill="none" stroke="black" d="M56.499,-433.418C65.3705,-495.746 95.1556,-680.05 141.435,-714.8 201.836,-760.154 242.851,-746.554 311.386,-714.8 350.548,-696.655 379.151,-652.821 393.456,-626.601"/>
</g>
<!-- CPG_GP_HYD&#45;&#45;GPUVS -->
<g id="edge19" class="edge"><title>CPG_GP_HYD&#45;&#45;GPUVS</title>
<path fill="none" stroke="black" d="M62.4743,-391.784C75.4198,-363.4 102.415,-313.318 141.435,-286.8 205.614,-243.184 236.254,-266.205 311.386,-246.8 332.196,-241.425 355.49,-234.865 373.48,-229.679"/>
</g>
<!-- CPG_GP_HYD&#45;&#45;GPGW -->
<g id="edge22" class="edge"><title>CPG_GP_HYD&#45;&#45;GPGW</title>
<path fill="none" stroke="black" d="M53.8203,-391.851C55.2817,-340.93 66.5258,-209.99 141.435,-143.8 199.095,-92.8512 242.504,-145.089 311.386,-110.8 341.689,-95.7154 369.568,-67.9155 386.599,-48.67"/>
</g>
<!-- CPG_GP_HYD&#45;&#45;GPCTY_FORC -->
<g id="edge14" class="edge"><title>CPG_GP_HYD&#45;&#45;GPCTY_FORC</title>
<path fill="none" stroke="black" d="M79.1671,-433.454C96.1455,-446.623 119.33,-463.468 141.435,-475.8 151.504,-481.417 162.659,-486.677 173.462,-491.326"/>
</g>
<!-- GPRT -->
<g id="node15" class="node"><title>GPRT</title>
<polygon fill="none" stroke="black" points="253.41,-705.402 199.41,-705.402 199.41,-664.198 253.41,-664.198 253.41,-705.402"/>
<text text-anchor="middle" x="226.41" y="-689" font-family="Times,serif" font-size="14.00">GPRT</text>
<text text-anchor="middle" x="226.41" y="-672.2" font-family="Times,serif" font-size="14.00">110</text>
</g>
<!-- CPG_GP_HYD&#45;&#45;GPRT -->
<g id="edge11" class="edge"><title>CPG_GP_HYD&#45;&#45;GPRT</title>
<path fill="none" stroke="black" d="M55.3798,-433.422C60.1828,-479.509 78.0895,-591.747 141.435,-654.8 156.906,-670.2 180.809,-677.736 199.163,-681.4"/>
</g>
<!-- GPCTY_EXPL -->
<g id="node16" class="node"><title>GPCTY_EXPL</title>
<polygon fill="none" stroke="black" points="278.29,-645.402 174.531,-645.402 174.531,-604.198 278.29,-604.198 278.29,-645.402"/>
<text text-anchor="middle" x="226.41" y="-629" font-family="Times,serif" font-size="14.00">GPCTY_EXPL</text>
<text text-anchor="middle" x="226.41" y="-612.2" font-family="Times,serif" font-size="14.00">339</text>
</g>
<!-- CPG_GP_HYD&#45;&#45;GPCTY_EXPL -->
<g id="edge12" class="edge"><title>CPG_GP_HYD&#45;&#45;GPCTY_EXPL</title>
<path fill="none" stroke="black" d="M58.2482,-433.672C67.4371,-471.155 91.75,-550.121 141.435,-594.8 150.759,-603.185 162.59,-609.267 174.408,-613.664"/>
</g>
<!-- UPDATE_GWDIAG -->
<g id="node17" class="node"><title>UPDATE_GWDIAG</title>
<polygon fill="none" stroke="black" points="294.42,-585.8 158.4,-585.8 158.4,-549.8 294.42,-549.8 294.42,-585.8"/>
<text text-anchor="middle" x="226.41" y="-563.6" font-family="Times,serif" font-size="14.00">UPDATE_GWDIAG</text>
</g>
<!-- CPG_GP_HYD&#45;&#45;UPDATE_GWDIAG -->
<g id="edge13" class="edge"><title>CPG_GP_HYD&#45;&#45;UPDATE_GWDIAG</title>
<path fill="none" stroke="black" d="M62.6997,-433.704C75.9066,-462.023 103.204,-512.303 141.435,-540.8 146.592,-544.644 152.317,-547.953 158.285,-550.8"/>
</g>
<!-- GP_TNDLAGADIAB_UV -->
<g id="node18" class="node"><title>GP_TNDLAGADIAB_UV</title>
<polygon fill="none" stroke="black" points="311.361,-101.402 141.459,-101.402 141.459,-60.1981 311.361,-60.1981 311.361,-101.402"/>
<text text-anchor="middle" x="226.41" y="-85" font-family="Times,serif" font-size="14.00">GP_TNDLAGADIAB_UV</text>
<text text-anchor="middle" x="226.41" y="-68.2" font-family="Times,serif" font-size="14.00">160</text>
</g>
<!-- CPG_GP_HYD&#45;&#45;GP_TNDLAGADIAB_UV -->
<g id="edge23" class="edge"><title>CPG_GP_HYD&#45;&#45;GP_TNDLAGADIAB_UV</title>
<path fill="none" stroke="black" d="M54.008,-391.9C55.8503,-338.93 67.808,-197.817 141.435,-115.8 146.394,-110.276 152.362,-105.6 158.803,-101.648"/>
</g>
</g>
</svg>
